<svg width="81" height="70" viewBox="0 0 81 70" fill="none" xmlns="http://www.w3.org/2000/svg">
<path d="M5.526 24.86H5.58C5.88 25.016 6.03 25.19 6.03 25.382L5.58 28.802C5.58 30.05 5.952 32.636 6.696 36.56L7.596 38.81C7.596 38.966 7.47 39.14 7.218 39.332H6.876C6.636 39.26 6.276 38.522 5.796 37.118C5.484 35.99 5.172 34.25 4.86 31.898H4.752C4.056 33.962 3.564 35.03 3.276 35.102L2.988 35.174C2.736 35.174 2.424 34.682 2.052 33.698H1.926C1.782 36.662 1.5 38.144 1.08 38.144H1.026C0.642 38.144 0.432 37.844 0.396 37.244C0.696 36.092 0.846 34.892 0.846 33.644L0.36 28.874V28.532C0.36 28.076 0.522 27.848 0.846 27.848C1.314 27.848 1.728 28.766 2.088 30.602C2.616 32.27 2.94 33.17 3.06 33.302C3.336 32.87 3.612 32.102 3.888 30.998C4.104 30.434 4.314 29.552 4.518 28.352L4.446 28.298L4.518 28.01V27.902C4.626 25.874 4.962 24.86 5.526 24.86ZM12.0703 31.052C12.5983 31.052 12.8623 31.262 12.8623 31.682L12.7003 32.024L12.5923 35.318C12.5923 36.806 12.8923 37.73 13.4923 38.09L13.5283 38.36C13.4923 38.708 13.3303 38.882 13.0423 38.882H12.9343C12.0343 38.27 11.5843 37.334 11.5843 36.074H11.4583C10.9783 37.418 10.3963 38.09 9.71227 38.09C9.07627 37.91 8.75827 37.436 8.75827 36.668C8.75827 34.976 9.43627 33.29 10.7923 31.61C11.2483 31.238 11.6743 31.052 12.0703 31.052ZM9.89227 35.948L9.82027 36.452V36.794H10.0003C10.9003 34.55 11.3503 33.182 11.3503 32.69H11.2783C10.5823 33.47 10.1203 34.556 9.89227 35.948ZM15.3101 27.344C15.6821 27.344 15.9221 27.794 16.0301 28.694V28.802C16.0301 29.21 15.8381 29.414 15.4541 29.414C15.0821 29.414 14.8961 29.024 14.8961 28.244C14.8121 28.244 14.7581 28.106 14.7341 27.83C14.8541 27.506 15.0461 27.344 15.3101 27.344ZM21.2421 30.71C21.5661 30.71 21.7881 31.256 21.9081 32.348C21.7881 32.648 21.5901 32.798 21.3141 32.798C21.1221 32.762 20.9301 32.54 20.7381 32.132L20.4141 32.024C19.8501 32.024 19.3401 32.396 18.8841 33.14V33.302C18.8841 33.482 19.7301 33.782 21.4221 34.202C22.1301 34.622 22.4841 35.132 22.4841 35.732C22.4841 36.716 21.6921 37.556 20.1081 38.252L19.4421 38.36C18.4341 38.252 17.9301 37.748 17.9301 36.848V36.794C17.9301 36.506 18.1161 36.338 18.4881 36.29C18.7761 36.29 18.9681 36.59 19.0641 37.19L19.2081 37.298H19.5141C20.1981 37.298 20.8341 36.83 21.4221 35.894V35.66C21.4221 35.3 20.6361 34.964 19.0641 34.652C18.2361 34.316 17.8221 33.848 17.8221 33.248C17.8221 32.468 18.4761 31.736 19.7841 31.052C20.3601 30.98 20.8461 30.866 21.2421 30.71Z" fill="black"/>
<path d="M26.6564 44.4601H26.7104C27.0104 44.6161 27.1604 44.7901 27.1604 44.9821L26.7104 48.4021C26.7104 49.6501 27.0824 52.2361 27.8264 56.1601L28.7264 58.4101C28.7264 58.5661 28.6004 58.7401 28.3484 58.9321H28.0064C27.7664 58.8601 27.4064 58.1221 26.9264 56.7181C26.6144 55.5901 26.3024 53.8501 25.9904 51.4981H25.8824C25.1864 53.5621 24.6944 54.6301 24.4064 54.7021L24.1184 54.7741C23.8664 54.7741 23.5544 54.2821 23.1824 53.2981H23.0564C22.9124 56.2621 22.6304 57.7441 22.2104 57.7441H22.1564C21.7724 57.7441 21.5624 57.4441 21.5264 56.8441C21.8264 55.6921 21.9764 54.4921 21.9764 53.2441L21.4904 48.4741V48.1321C21.4904 47.6761 21.6524 47.4481 21.9764 47.4481C22.4444 47.4481 22.8584 48.3661 23.2184 50.2021C23.7464 51.8701 24.0704 52.7701 24.1904 52.9021C24.4664 52.4701 24.7424 51.7021 25.0184 50.5981C25.2344 50.0341 25.4444 49.1521 25.6484 47.9521L25.5764 47.8981L25.6484 47.6101V47.5021C25.7564 45.4741 26.0924 44.4601 26.6564 44.4601ZM31.4546 51.1381C31.9346 51.1501 32.7446 51.9901 33.8846 53.6581L33.9206 53.9641C33.9206 54.3001 33.0986 54.5581 31.4546 54.7381L31.4006 54.7921V54.8641C31.6526 55.9441 31.9166 56.4841 32.1926 56.4841H32.4086C32.7926 56.4841 33.3746 56.0701 34.1546 55.2421H34.2626C34.5026 55.2421 34.6886 55.4161 34.8206 55.7641C34.8206 56.0521 34.3166 56.5501 33.3086 57.2581C33.0446 57.4141 32.7266 57.5281 32.3546 57.6001C31.3826 57.6001 30.7046 56.6881 30.3206 54.8641C29.7686 54.7801 29.4926 54.5521 29.4926 54.1801C29.4926 53.9161 29.6966 53.7421 30.1046 53.6581V53.7301L30.2846 53.6581V53.2081C30.2846 51.8281 30.6746 51.1381 31.4546 51.1381ZM31.5626 52.4341H31.4006L31.3286 53.1001V53.6581H31.4006C32.0726 53.6341 32.4086 53.5621 32.4086 53.4421C32.0966 52.9741 31.8146 52.6381 31.5626 52.4341ZM39.4184 50.6521C39.9464 50.6521 40.2104 50.8621 40.2104 51.2821L40.0484 51.6241L39.9404 54.9181C39.9404 56.4061 40.2404 57.3301 40.8404 57.6901L40.8764 57.9601C40.8404 58.3081 40.6784 58.4821 40.3904 58.4821H40.2824C39.3824 57.8701 38.9324 56.9341 38.9324 55.6741H38.8064C38.3264 57.0181 37.7444 57.6901 37.0604 57.6901C36.4244 57.5101 36.1064 57.0361 36.1064 56.2681C36.1064 54.5761 36.7844 52.8901 38.1404 51.2101C38.5964 50.8381 39.0224 50.6521 39.4184 50.6521ZM37.2404 55.5481L37.1684 56.0521V56.3941H37.3484C38.2484 54.1501 38.6984 52.7821 38.6984 52.2901H38.6264C37.9304 53.0701 37.4684 54.1561 37.2404 55.5481ZM43.9722 46.6741C44.3082 46.7461 44.4762 46.9141 44.4762 47.1781L44.3682 47.9701V48.2041C44.3682 48.7321 44.4282 49.2901 44.5482 49.8781H44.5842C45.9762 49.4581 46.8402 49.2481 47.1762 49.2481C47.5242 49.3441 47.6982 49.5181 47.6982 49.7701C47.6982 50.1781 47.2842 50.3821 46.4562 50.3821L44.5842 51.0481C44.5842 52.6681 44.7582 54.8701 45.1062 57.6541C45.0342 57.9781 44.8602 58.1401 44.5842 58.1401H44.5482C44.1282 58.1401 43.9182 57.6001 43.9182 56.5201C43.7622 55.7161 43.6302 53.9701 43.5222 51.2821H43.1982C42.0702 51.2101 41.5062 50.9461 41.5062 50.4901C41.5062 50.3581 41.6322 50.1961 41.8842 50.0041H42.0642L42.8922 50.2201H43.4682L43.3062 47.9701C43.3062 47.1061 43.5282 46.6741 43.9722 46.6741Z" fill="black"/>
</svg>
