<svg width="60" height="60" viewBox="0 0 60 60" fill="none" xmlns="http://www.w3.org/2000/svg">
<path d="M54.6798 2.26416H5.3251C3.63459 2.26416 2.26416 3.63459 2.26416 5.3251V54.6798C2.26416 56.3703 3.63459 57.7407 5.3251 57.7407H54.6798C56.3703 57.7407 57.7407 56.3703 57.7407 54.6798V5.3251C57.7407 3.63459 56.3703 2.26416 54.6798 2.26416Z" fill="#3D5A98"/>
<path d="M40.5374 57.736V36.2532H47.7468L48.8249 27.8813H40.5374V22.5375C40.5374 20.1141 41.2124 18.4594 44.6858 18.4594H49.1202V10.9594C46.9729 10.736 44.815 10.6296 42.6562 10.6407C36.2718 10.6407 31.8749 14.5313 31.8749 21.7079V27.8813H24.6655V36.2532H31.8749V57.736H40.5374Z" fill="white"/>
</svg>
