<svg width="58" height="55" viewBox="0 0 58 55" fill="none" xmlns="http://www.w3.org/2000/svg">
<g filter="url(#filter0_dd_659_80)">
<path d="M36.5001 22.5001V22.5251M11.9326 15.9451C10.8361 15.1024 9.99392 13.9729 9.49921 12.6814C9.00451 11.39 8.8765 9.98693 9.12935 8.6273C9.3822 7.26767 10.006 6.00442 10.9319 4.97717C11.8578 3.94993 13.0497 3.19868 14.3759 2.80648C15.7021 2.41427 17.1108 2.39637 18.4465 2.75475C19.7822 3.11314 20.9928 3.83385 21.9445 4.83724C22.8962 5.84063 23.552 7.08762 23.8393 8.44039C24.1266 9.79315 24.0343 11.199 23.5726 12.5026" stroke="#C53831" stroke-width="5" stroke-linecap="round" stroke-linejoin="round"/>
<path d="M39 5V14.5075C42.0939 16.298 44.4495 19.1312 45.645 22.5H48.9975C49.6606 22.5 50.2965 22.7634 50.7653 23.2322C51.2341 23.7011 51.4975 24.337 51.4975 25V30C51.4975 30.663 51.2341 31.2989 50.7653 31.7678C50.2965 32.2366 49.6606 32.5 48.9975 32.5H45.6425C44.8025 34.875 43.375 37 41.4975 38.6825V43.75C41.4975 44.7446 41.1024 45.6984 40.3992 46.4016C39.6959 47.1049 38.7421 47.5 37.7475 47.5C36.753 47.5 35.7991 47.1049 35.0959 46.4016C34.3926 45.6984 33.9975 44.7446 33.9975 43.75V42.2925C33.1715 42.4314 32.3352 42.5008 31.4975 42.5H21.4975C20.6599 42.5008 19.8236 42.4314 18.9975 42.2925V43.75C18.9975 44.7446 18.6024 45.6984 17.8992 46.4016C17.1959 47.1049 16.2421 47.5 15.2475 47.5C14.253 47.5 13.2991 47.1049 12.5959 46.4016C11.8926 45.6984 11.4975 44.7446 11.4975 43.75V38.6825C9.23244 36.6574 7.63573 33.9922 6.91874 31.0397C6.20176 28.0871 6.39831 24.9864 7.48239 22.1481C8.56646 19.3097 10.4869 16.8674 12.9896 15.1446C15.4923 13.4217 18.4592 12.4995 21.4975 12.5H27.7475L39 5Z" stroke="#312828" stroke-width="5" stroke-linecap="round" stroke-linejoin="round"/>
</g>
<defs>
<filter id="filter0_dd_659_80" x="-0.00488281" y="-0.00146484" width="58.002" height="58.0015" filterUnits="userSpaceOnUse" color-interpolation-filters="sRGB">
<feFlood flood-opacity="0" result="BackgroundImageFix"/>
<feColorMatrix in="SourceAlpha" type="matrix" values="0 0 0 0 0 0 0 0 0 0 0 0 0 0 0 0 0 0 127 0" result="hardAlpha"/>
<feOffset dy="4"/>
<feGaussianBlur stdDeviation="2"/>
<feComposite in2="hardAlpha" operator="out"/>
<feColorMatrix type="matrix" values="0 0 0 0 0 0 0 0 0 0 0 0 0 0 0 0 0 0 0.25 0"/>
<feBlend mode="normal" in2="BackgroundImageFix" result="effect1_dropShadow_659_80"/>
<feColorMatrix in="SourceAlpha" type="matrix" values="0 0 0 0 0 0 0 0 0 0 0 0 0 0 0 0 0 0 127 0" result="hardAlpha"/>
<feOffset dy="4"/>
<feGaussianBlur stdDeviation="2"/>
<feComposite in2="hardAlpha" operator="out"/>
<feColorMatrix type="matrix" values="0 0 0 0 0 0 0 0 0 0 0 0 0 0 0 0 0 0 0.25 0"/>
<feBlend mode="normal" in2="effect1_dropShadow_659_80" result="effect2_dropShadow_659_80"/>
<feBlend mode="normal" in="SourceGraphic" in2="effect2_dropShadow_659_80" result="shape"/>
</filter>
</defs>
</svg>
