<svg width="60" height="60" viewBox="0 0 60 60" fill="none" xmlns="http://www.w3.org/2000/svg">
<g clip-path="url(#clip0_662_87)">
<path d="M1.27323 29.641C1.27183 34.6821 2.58904 39.6045 5.09369 43.9431L1.03369 58.7668L16.2039 54.7891C20.3998 57.0733 25.101 58.2702 29.8783 58.2705H29.8909C45.6618 58.2705 58.4997 45.4373 58.5065 29.6635C58.5095 22.0201 55.5356 14.8326 50.1323 9.42517C44.73 4.01819 37.5451 1.03889 29.8897 1.0354C14.117 1.0354 1.27997 13.868 1.27346 29.641" fill="url(#paint0_linear_662_87)"/>
<path d="M0.251279 29.6316C0.249651 34.8542 1.61407 39.9526 4.20802 44.4465L0.00244141 59.8016L15.7166 55.6814C20.0464 58.0421 24.9213 59.2867 29.8817 59.2886H29.8945C46.2313 59.2886 59.5304 45.9937 59.5373 29.6553C59.5401 21.7372 56.4592 14.2914 50.8629 8.69023C45.2659 3.08977 37.8241 0.00325581 29.8945 0C13.555 0 0.25779 13.293 0.251279 29.6316ZM9.60965 43.6726L9.02291 42.7412C6.55639 38.8193 5.25453 34.2872 5.25639 29.6335C5.26151 16.0533 16.3136 5.00465 29.9038 5.00465C36.4852 5.00744 42.6703 7.57302 47.3224 12.2279C51.9743 16.8833 54.5341 23.0716 54.5324 29.6535C54.5264 43.2337 43.4741 54.2837 29.8945 54.2837H29.8848C25.4631 54.2814 21.1266 53.094 17.3448 50.85L16.4448 50.3163L7.11965 52.7612L9.60965 43.6726Z" fill="url(#paint1_linear_662_87)"/>
<path d="M22.4855 17.2438C21.9306 16.0105 21.3467 15.9856 20.819 15.964C20.3869 15.9454 19.893 15.9468 19.3995 15.9468C18.9055 15.9468 18.103 16.1326 17.4246 16.8733C16.7455 17.6147 14.832 19.4063 14.832 23.0503C14.832 26.6942 17.4862 30.2161 17.8562 30.7108C18.2267 31.2045 22.9802 38.9217 30.5085 41.8905C36.7653 44.3577 38.0385 43.867 39.3965 43.7433C40.7546 43.6201 43.7788 41.9522 44.3958 40.2226C45.0132 38.4933 45.0132 37.011 44.8281 36.7012C44.643 36.3926 44.149 36.2073 43.4083 35.837C42.6676 35.4668 39.026 33.6747 38.3471 33.4275C37.6681 33.1805 37.1744 33.0573 36.6804 33.7989C36.1864 34.5394 34.7681 36.2073 34.3358 36.7012C33.9039 37.1963 33.4716 37.258 32.7311 36.8875C31.9899 36.5159 29.6046 35.7347 26.7746 33.2117C24.5727 31.2484 23.0862 28.824 22.6541 28.0824C22.222 27.3419 22.6078 26.9405 22.9792 26.5715C23.312 26.2396 23.7202 25.7066 24.0909 25.2742C24.4602 24.8417 24.5834 24.5331 24.8304 24.0391C25.0776 23.5447 24.9539 23.1122 24.769 22.7417C24.5834 22.3712 23.1441 18.7082 22.4855 17.2438Z" fill="white"/>
</g>
<defs>
<linearGradient id="paint0_linear_662_87" x1="2874.67" y1="5774.18" x2="2874.67" y2="1.0354" gradientUnits="userSpaceOnUse">
<stop stop-color="#1FAF38"/>
<stop offset="1" stop-color="#60D669"/>
</linearGradient>
<linearGradient id="paint1_linear_662_87" x1="2976.75" y1="5980.16" x2="2976.75" y2="0" gradientUnits="userSpaceOnUse">
<stop stop-color="#F9F9F9"/>
<stop offset="1" stop-color="white"/>
</linearGradient>
<clipPath id="clip0_662_87">
<rect width="59.54" height="60" fill="white"/>
</clipPath>
</defs>
</svg>
