<svg width="40" height="40" viewBox="0 0 40 40" fill="none" xmlns="http://www.w3.org/2000/svg">
<path d="M20 17.5C21.375 17.5 22.5525 17.0108 23.5325 16.0325C24.5125 15.0542 25.0017 13.8767 25 12.5C24.9983 11.1233 24.5092 9.94667 23.5325 8.97C22.5558 7.99333 21.3783 7.50333 20 7.5C18.6217 7.49667 17.445 7.98667 16.47 8.97C15.495 9.95333 15.005 11.13 15 12.5C14.995 13.87 15.485 15.0475 16.47 16.0325C17.455 17.0175 18.6317 17.5067 20 17.5ZM10.9625 40V37.5H18.75V28.115C16.5483 27.7217 14.6217 26.8008 12.97 25.3525C11.3183 23.9042 10.1808 22.1117 9.5575 19.975C6.91417 19.6633 4.66 18.5792 2.795 16.7225C0.930002 14.8658 -0.00166443 12.625 2.23214e-06 10V7.5C2.23214e-06 6.83 0.249168 6.24583 0.747502 5.7475C1.24584 5.24917 1.83 5 2.5 5H9.135V0H30.865V5H37.5C38.17 5 38.7542 5.24917 39.2525 5.7475C39.7508 6.24583 40 6.83 40 7.5V10C40 12.6217 39.0683 14.8617 37.205 16.72C35.3417 18.5783 33.0875 19.6617 30.4425 19.97C29.8208 22.1117 28.6842 23.9058 27.0325 25.3525C25.3808 26.7992 23.4533 27.72 21.25 28.115V37.5H29.0375V40H10.9625ZM9.135 17.29V7.5H2.5V10C2.5 11.9033 3.135 13.5392 4.405 14.9075C5.675 16.2758 7.25167 17.07 9.135 17.29ZM20 25.6725C22.3083 25.6725 24.2633 24.8717 25.865 23.27C27.4683 21.6667 28.27 19.7108 28.27 17.4025V2.5H11.73V17.405C11.73 19.7117 12.5317 21.6667 14.135 23.27C15.7367 24.8717 17.6917 25.6725 20 25.6725ZM30.865 17.2875C32.75 17.0675 34.3267 16.2742 35.595 14.9075C36.8633 13.5408 37.4983 11.905 37.5 10V7.5H30.865V17.2875Z" fill="#312828"/>
</svg>
