<svg width="57" height="56" viewBox="0 0 57 56" fill="none" xmlns="http://www.w3.org/2000/svg">
<path d="M14.9845 0.116689L15.9732 2.36517C18.0076 6.98587 19.238 11.7361 19.7892 16.4643C13.9286 16.9364 8.10277 16.9507 2.83355 16.6584L0.350586 16.519L1.92535 18.4419C6.87441 24.4888 12.8955 28.1096 19.3204 31.4388C17.8981 39.6025 14.665 47.1536 10.2639 53.155L8.78082 55.1764L11.2711 54.8908C22.961 53.5482 32.1187 48.8972 39.0079 42.4615C42.8821 45.2169 46.7415 48.5564 50.5032 52.8876L52.2721 54.9236L52.4221 52.2318C52.8391 44.7549 51.4108 37.219 48.4782 30.2557C52.9032 22.3283 55.2733 13.4716 55.927 5.10067L56.1614 2.10864L54.0555 4.2438C49.8781 8.48364 43.9375 11.4255 37.2429 13.399C31.7427 7.80442 24.9806 3.40052 17.3175 0.881924L14.9845 0.116689ZM24.6818 7.77044C25.897 7.77255 27.4459 8.34278 29.2886 9.46614C31.2257 10.8677 33.0591 12.4072 34.7745 14.0728C30.6653 15.1153 26.3339 15.8168 21.9791 16.2555C21.8569 15.2111 21.703 14.1706 21.5176 13.1355C21.5172 13.1332 21.518 13.1306 21.5176 13.1283C21.4173 9.53294 22.5332 7.76692 24.6818 7.77044ZM46.1343 13.2417C49.7273 13.1734 51.6407 15.3284 50.69 19.8444C49.7783 22.5393 48.665 25.1914 47.3391 27.751C45.145 23.2115 42.3273 19.0009 38.9677 15.2413C40.4698 14.7655 41.9349 14.2352 43.3549 13.6517C44.3633 13.3944 45.2945 13.2577 46.1343 13.2417ZM36.6055 15.9333C40.511 20.1321 43.6962 24.9786 46.0135 30.168C44.9551 31.9733 43.7861 33.7208 42.4979 35.3902C41.6475 36.4918 40.7394 37.5559 39.7841 38.5836C37.3107 37.8685 34.7227 36.8272 32.6577 35.8883C32.649 35.8843 32.6408 35.8813 32.6319 35.8773C30.3055 34.57 28.0077 33.3876 25.7619 32.2552C24.3937 31.5655 23.0853 30.8966 21.7629 30.2229C22.2732 26.6946 22.4507 23.0697 22.2464 19.4084C25.2651 18.5706 28.6232 17.8522 31.4237 17.1526C33.1782 16.8022 34.9101 16.3992 36.6055 15.9333ZM31.9364 19.7602C31.8371 19.7599 31.7395 19.7624 31.6434 19.7676C30.8751 19.8102 30.2109 20.0278 29.6731 20.3682C28.5977 21.0491 27.8972 22.2581 27.8972 24.1256C27.8972 27.8604 31.1967 32.4225 35.0456 33.8301C36.97 34.5341 38.5404 34.3499 39.6159 33.669C40.6914 32.9881 41.392 31.7791 41.392 29.9116C41.392 26.1768 38.0962 21.6186 34.2474 20.2108C33.4054 19.9026 32.6313 19.7622 31.9364 19.7602ZM20.0746 20.057C20.2118 23.1331 20.0671 26.18 19.6793 29.1608C18.7084 28.6515 17.7511 28.1375 16.8117 27.6081C11.4396 24.0763 14.694 21.798 20.0746 20.057ZM21.3748 32.4824C22.5071 33.0554 23.6231 33.6308 24.7733 34.2109C28.8355 36.2593 32.9993 38.4324 37.1584 41.1982C36.3663 41.9225 35.5479 42.6175 34.7048 43.2818C26.9039 47.0868 21.1664 43.6064 20.8474 34.9872C21.042 34.1564 21.218 33.3212 21.3748 32.4824ZM47.0534 32.6617C47.5015 33.8291 47.9058 35.0128 48.2656 36.2104C48.6247 39.4204 45.808 39.8696 42.2012 39.1767C42.9053 38.3848 43.5819 37.5689 44.2299 36.7304C45.2436 35.4171 46.1785 34.0538 47.0534 32.6617Z" fill="#312828"/>
</svg>
