<svg width="16" height="16" viewBox="0 0 16 16" fill="none" xmlns="http://www.w3.org/2000/svg">
<path d="M8 7C8.55 7 9.021 6.80433 9.413 6.413C9.805 6.02167 10.0007 5.55067 10 5C9.99933 4.44933 9.80367 3.97867 9.413 3.588C9.02233 3.19733 8.55133 3.00133 8 3C7.44867 2.99867 6.978 3.19467 6.588 3.588C6.198 3.98133 6.002 4.452 6 5C5.998 5.548 6.194 6.019 6.588 6.413C6.982 6.807 7.45267 7.00267 8 7ZM4.385 16V15H7.5V11.246C6.61933 11.0887 5.84867 10.7203 5.188 10.141C4.52733 9.56167 4.07233 8.84467 3.823 7.99C2.76567 7.86533 1.864 7.43167 1.118 6.689C0.372001 5.94633 -0.000665774 5.05 8.92857e-07 4V3C8.92857e-07 2.732 0.0996673 2.49833 0.299001 2.299C0.498334 2.09967 0.732001 2 1 2H3.654V0H12.346V2H15C15.268 2 15.5017 2.09967 15.701 2.299C15.9003 2.49833 16 2.732 16 3V4C16 5.04867 15.6273 5.94467 14.882 6.688C14.1367 7.43133 13.235 7.86467 12.177 7.988C11.9283 8.84467 11.4737 9.56233 10.813 10.141C10.1523 10.7197 9.38133 11.088 8.5 11.246V15H11.615V16H4.385ZM3.654 6.916V3H1V4C1 4.76133 1.254 5.41567 1.762 5.963C2.27 6.51033 2.90067 6.828 3.654 6.916ZM8 10.269C8.92333 10.269 9.70533 9.94867 10.346 9.308C10.9873 8.66667 11.308 7.88433 11.308 6.961V1H4.692V6.962C4.692 7.88467 5.01267 8.66667 5.654 9.308C6.29467 9.94867 7.07667 10.269 8 10.269ZM12.346 6.915C13.1 6.827 13.7307 6.50967 14.238 5.963C14.7453 5.41633 14.9993 4.762 15 4V3H12.346V6.915Z" fill="#111111"/>
</svg>
